<svg xmlns="http://www.w3.org/2000/svg" xmlns:xlink="http://www.w3.org/1999/xlink" style ="display:none">

<!--Twitch-->

<symbol id="twitch" viewBox="0 0 32 32">
<path d="M15.428 6.285h2.287v6.857h-2.288zM21.715 6.285h2.285v6.857h-2.285zM8 0l-5.715 5.715v20.571h6.857v5.715l5.715-5.715h4.571l10.287-10.285v-16zM27.428 14.857l-4.571 4.571h-4.572l-4 4v-4h-5.143v-17.143h18.285z"></path>
</symbol>

<!-- Github -->

<symbol id="github" viewBox="0 0 32 32">
<path d="M16 0.396c-8.84 0-16 7.164-16 16 0 7.071 4.584 13.067 10.94 15.18 0.8 0.151 1.093-0.344 1.093-0.769 0-0.38-0.013-1.387-0.020-2.72-4.451 0.965-5.389-2.147-5.389-2.147-0.728-1.847-1.78-2.34-1.78-2.34-1.449-0.992 0.112-0.972 0.112-0.972 1.607 0.112 2.451 1.648 2.451 1.648 1.427 2.447 3.745 1.74 4.66 1.331 0.144-1.035 0.556-1.74 1.013-2.14-3.553-0.4-7.288-1.776-7.288-7.907 0-1.747 0.62-3.173 1.647-4.293-0.18-0.404-0.72-2.031 0.14-4.235 0 0 1.34-0.429 4.4 1.64 1.28-0.356 2.64-0.532 4-0.54 1.36 0.008 2.72 0.184 4 0.54 3.040-2.069 4.38-1.64 4.38-1.64 0.86 2.204 0.32 3.831 0.16 4.235 1.020 1.12 1.64 2.547 1.64 4.293 0 6.147-3.74 7.5-7.3 7.893 0.56 0.48 1.080 1.461 1.080 2.96 0 2.141-0.020 3.861-0.020 4.381 0 0.42 0.28 0.92 1.1 0.76 6.401-2.099 10.981-8.099 10.981-15.159 0-8.836-7.164-16-16-16z"></path>
</symbol>

<!-- Instagram-->

<symbol id="instagram" viewBox="0 0 32 32">
<path d="M9.373 0.112c-1.702 0.080-2.865 0.352-3.881 0.751-1.052 0.41-1.943 0.96-2.83 1.85s-1.433 1.782-1.84 2.836c-0.394 1.018-0.661 2.182-0.736 3.885s-0.092 2.251-0.083 6.596c0.008 4.345 0.027 4.889 0.11 6.596 0.081 1.702 0.352 2.864 0.751 3.881 0.411 1.052 0.96 1.943 1.851 2.83s1.782 1.432 2.838 1.84c1.018 0.393 2.181 0.661 3.885 0.736s2.251 0.092 6.595 0.084c4.344-0.008 4.891-0.028 6.597-0.109s2.863-0.354 3.88-0.751c1.052-0.411 1.944-0.96 2.83-1.851s1.433-1.784 1.839-2.838c0.394-1.018 0.662-2.181 0.736-3.883 0.075-1.708 0.092-2.253 0.084-6.597s-0.028-4.889-0.109-6.595-0.352-2.865-0.751-3.882c-0.411-1.052-0.96-1.942-1.85-2.83s-1.784-1.434-2.837-1.839c-1.018-0.394-2.181-0.662-3.885-0.736s-2.251-0.093-6.597-0.084c-4.345 0.008-4.889 0.027-6.596 0.11zM9.56 29.036c-1.56-0.068-2.407-0.327-2.972-0.544-0.747-0.288-1.28-0.636-1.843-1.193s-0.908-1.091-1.2-1.837c-0.219-0.565-0.483-1.411-0.556-2.971-0.079-1.686-0.096-2.192-0.105-6.464s0.007-4.777 0.081-6.464c0.067-1.559 0.327-2.407 0.544-2.971 0.288-0.748 0.635-1.28 1.193-1.842s1.091-0.909 1.838-1.2c0.564-0.22 1.41-0.482 2.969-0.556 1.687-0.080 2.193-0.096 6.464-0.105s4.778 0.007 6.466 0.081c1.559 0.068 2.407 0.326 2.971 0.544 0.748 0.288 1.28 0.634 1.842 1.193s0.909 1.090 1.201 1.838c0.22 0.562 0.482 1.408 0.556 2.968 0.080 1.687 0.099 2.193 0.106 6.464s-0.007 4.778-0.081 6.464c-0.068 1.56-0.327 2.407-0.544 2.973-0.288 0.747-0.635 1.28-1.194 1.842s-1.091 0.908-1.838 1.2c-0.563 0.22-1.41 0.482-2.968 0.557-1.687 0.079-2.193 0.096-6.466 0.105s-4.777-0.008-6.464-0.081zM22.604 7.449c0.002 1.059 0.861 1.917 1.92 1.917 1.060 0 1.92-0.86 1.92-1.92s-0.86-1.92-1.92-1.92c-0.001 0-0.003 0-0.004 0h0c-1.059 0.002-1.916 0.861-1.916 1.92 0 0.001 0 0.002 0 0.003v-0zM7.785 16.016c0.009 4.538 3.694 8.208 8.231 8.199s8.209-3.693 8.201-8.231c-0.009-4.538-3.695-8.209-8.232-8.2s-8.208 3.695-8.199 8.232zM10.667 16.010c0-0.003 0-0.007 0-0.011 0-2.946 2.388-5.333 5.333-5.333s5.333 2.388 5.333 5.333c0 2.942-2.382 5.327-5.322 5.333h-0.001c-0.003 0-0.007 0-0.011 0-2.942 0-5.327-2.382-5.333-5.322v-0.001z"></path>
</symbol>

<!-- Youtube -->

<symbol id="youtube" viewBox="0 0 32 32">
<path d="M31.331 8.248c-0.377-1.389-1.444-2.462-2.801-2.841l-0.028-0.007c-2.495-0.673-12.501-0.673-12.501-0.673s-10.007 0-12.503 0.673c-1.384 0.387-2.451 1.46-2.821 2.82l-0.007 0.028c-0.669 2.512-0.669 7.752-0.669 7.752s0 5.24 0.669 7.752c0.377 1.389 1.444 2.462 2.801 2.841l0.028 0.007c2.495 0.673 12.501 0.673 12.501 0.673s10.007 0 12.503-0.673c1.385-0.386 2.452-1.459 2.823-2.82l0.007-0.028c0.668-2.512 0.668-7.752 0.668-7.752s0-5.24-0.669-7.752zM12.727 20.757v-9.515l8.364 4.757-8.364 4.757z"></path>
</symbol>

<!-- X icon-->

<symbol id="x" viewBox="0 0 32 32">
<path d="M18.979 13.549l11.657-13.549h-2.763l-10.121 11.765-8.084-11.765h-9.324l12.224 17.791-12.224 14.209h2.763l10.688-12.424 8.537 12.424h9.324zM15.196 17.948l-11.095-15.868h4.243l19.531 27.935h-4.243z"></path>
</symbol>


<!-- Linkedin-->

<symbol id="linkedin" viewBox="0 0 32 32">
<path d="M0 2.292c0-1.266 1.052-2.292 2.35-2.292h27.3c1.298 0 2.35 1.026 2.35 2.292v27.416c0 1.266-1.052 2.292-2.35 2.292h-27.3c-1.298 0-2.35-1.026-2.35-2.292zM9.886 26.788v-14.45h-4.802v14.45zM7.486 10.364c1.674 0 2.716-1.108 2.716-2.496-0.030-1.418-1.040-2.496-2.684-2.496s-2.718 1.080-2.718 2.496c0 1.388 1.042 2.496 2.654 2.496zM17.302 26.788v-8.070c0-0.432 0.032-0.864 0.16-1.172 0.346-0.862 1.136-1.756 2.464-1.756 1.738 0 2.432 1.324 2.432 3.268v7.73h4.802v-8.288c0-4.44-2.368-6.504-5.528-6.504-2.548 0-3.69 1.4-4.33 2.386v0.050h-0.032l0.032-0.050v-2.044h-4.8c0.060 1.356 0 14.45 0 14.45z"></path>
</symbol>


</svg>